<?xml version="1.0" encoding="UTF-8" standalone="no"?>
<svg
   width="64"
   height="64"
   version="1.1"
   viewBox="0 0 16.933 16.933"
   id="svg14"
   sodipodi:docname="favicon.svg"
   inkscape:version="1.4.3 (1:1.4.3+202512261034+0d15f75042)"
   xmlns:inkscape="http://www.inkscape.org/namespaces/inkscape"
   xmlns:sodipodi="http://sodipodi.sourceforge.net/DTD/sodipodi-0.dtd"
   xmlns="http://www.w3.org/2000/svg"
   xmlns:svg="http://www.w3.org/2000/svg"
   xmlns:rdf="http://www.w3.org/1999/02/22-rdf-syntax-ns#"
   xmlns:cc="http://creativecommons.org/ns#"
   xmlns:dc="http://purl.org/dc/elements/1.1/">
  <sodipodi:namedview
     id="namedview1"
     pagecolor="#ffffff"
     bordercolor="#000000"
     borderopacity="0.25"
     inkscape:showpageshadow="2"
     inkscape:pageopacity="0.0"
     inkscape:pagecheckerboard="0"
     inkscape:deskcolor="#d1d1d1"
     inkscape:zoom="2.8284271"
     inkscape:cx="26.162951"
     inkscape:cy="86.267027"
     inkscape:window-width="1920"
     inkscape:window-height="1163"
     inkscape:window-x="0"
     inkscape:window-y="0"
     inkscape:window-maximized="1"
     inkscape:current-layer="g39" />
  <defs
     id="defs18">
    <clipPath
       clipPathUnits="userSpaceOnUse"
       id="clipPath5013-5">
      <rect
         style="opacity:0.655956;fill:#ffffff;stroke-width:36.0001;stroke-linecap:round;stroke-linejoin:round"
         id="rect5015-7"
         width="89.470528"
         height="89.470528"
         x="-90.485939"
         y="-264.04001" />
    </clipPath>
    <marker
       style="overflow:visible"
       id="Arrow2Mstart-4-3"
       refX="0"
       refY="0"
       orient="auto"
       viewBox="0 0 6.9304588 5.1962256"
       markerWidth="5.9299998"
       markerHeight="4.446115"
       preserveAspectRatio="xMidYMid">
      <path
         transform="scale(0.6)"
         d="M 8.7185878,4.0337352 -2.2072895,0.01601326 8.7185884,-4.0017078 c -1.7454984,2.3720609 -1.7354408,5.6174519 -6e-7,8.035443 z"
         style="fill:context-stroke;fill-rule:evenodd;stroke:context-stroke;stroke-width:0.625;stroke-linejoin:round"
         id="path46657-8-6" />
    </marker>
    <marker
       style="overflow:visible"
       id="Arrow2Mend-1-7"
       refX="0"
       refY="0"
       orient="auto"
       viewBox="0 0 6.9304588 5.1962256"
       markerWidth="6.9304581"
       markerHeight="5.1962252"
       preserveAspectRatio="xMidYMid">
      <path
         transform="scale(-0.6)"
         d="M 8.7185878,4.0337352 -2.2072895,0.01601326 8.7185884,-4.0017078 c -1.7454984,2.3720609 -1.7354408,5.6174519 -6e-7,8.035443 z"
         style="fill:context-stroke;fill-rule:evenodd;stroke:context-stroke;stroke-width:0.625;stroke-linejoin:round"
         id="path26965-29-5" />
    </marker>
    <marker
       style="overflow:visible"
       id="Arrow2Mstart-6-3"
       refX="0"
       refY="0"
       orient="auto"
       viewBox="0 0 6.9304588 5.1962256"
       markerWidth="5.9299998"
       markerHeight="4.446115"
       preserveAspectRatio="xMidYMid">
      <path
         transform="scale(0.6)"
         d="M 8.7185878,4.0337352 -2.2072895,0.01601326 8.7185884,-4.0017078 c -1.7454984,2.3720609 -1.7354408,5.6174519 -6e-7,8.035443 z"
         style="fill:context-stroke;fill-rule:evenodd;stroke:context-stroke;stroke-width:0.625;stroke-linejoin:round"
         id="path46657-7-5" />
    </marker>
    <marker
       style="overflow:visible"
       id="Arrow2Mend-365-6"
       refX="0"
       refY="0"
       orient="auto"
       viewBox="0 0 6.9304588 5.1962256"
       markerWidth="6.9304581"
       markerHeight="5.1962252"
       preserveAspectRatio="xMidYMid">
      <path
         transform="scale(-0.6)"
         d="M 8.7185878,4.0337352 -2.2072895,0.01601326 8.7185884,-4.0017078 c -1.7454984,2.3720609 -1.7354408,5.6174519 -6e-7,8.035443 z"
         style="fill:context-stroke;fill-rule:evenodd;stroke:context-stroke;stroke-width:0.625;stroke-linejoin:round"
         id="path26965-63-2" />
    </marker>
    <marker
       style="overflow:visible"
       id="Arrow2Mstart-69-9"
       refX="0"
       refY="0"
       orient="auto"
       viewBox="0 0 6.9304588 5.1962256"
       markerWidth="6.935493"
       markerHeight="5.1999998"
       preserveAspectRatio="xMidYMid">
      <path
         transform="scale(0.6)"
         d="M 8.7185878,4.0337352 -2.2072895,0.01601326 8.7185884,-4.0017078 c -1.7454984,2.3720609 -1.7354408,5.6174519 -6e-7,8.035443 z"
         style="fill:context-stroke;fill-rule:evenodd;stroke:context-stroke;stroke-width:0.625;stroke-linejoin:round"
         id="path46657-3-1" />
    </marker>
    <marker
       style="overflow:visible"
       id="Arrow2Mend-74-2"
       refX="0"
       refY="0"
       orient="auto"
       viewBox="0 0 6.9304588 5.1962256"
       markerWidth="6.9354925"
       markerHeight="5.1999998"
       preserveAspectRatio="xMidYMid">
      <path
         transform="scale(-0.6)"
         d="M 8.7185878,4.0337352 -2.2072895,0.01601326 8.7185884,-4.0017078 c -1.7454984,2.3720609 -1.7354408,5.6174519 -6e-7,8.035443 z"
         style="fill:context-stroke;fill-rule:evenodd;stroke:context-stroke;stroke-width:0.625;stroke-linejoin:round"
         id="path26965-5-7" />
    </marker>
    <g
       id="g25"
       style="fill:#029e73;fill-opacity:1;stroke-width:0;stroke-opacity:1">
      <symbol
   overflow="visible"
   id="symbol20"
   style="fill:#029e73;fill-opacity:1;stroke-width:0;stroke-opacity:1">
        <path
   style="fill:#029e73;fill-opacity:1;stroke:#029e73;stroke-width:0;stroke-opacity:1"
   d=""
   id="path20" />

      </symbol>

      <symbol
   overflow="visible"
   id="symbol23"
   style="fill:#029e73;fill-opacity:1;stroke-width:0;stroke-opacity:1">
        <path
   style="fill:#029e73;fill-opacity:1;stroke:#029e73;stroke-width:0;stroke-opacity:1"
   d="m 3.65625,-3.984375 h 0.859375 c 0.203125,0 0.296875,0 0.296875,-0.203125 0,-0.109375 -0.09375,-0.109375 -0.265625,-0.109375 H 3.71875 L 3.921875,-5.4375 c 0.046875,-0.203125 0.1875,-0.90625 0.25,-1.03125 0.078125,-0.1875 0.25,-0.34375 0.46875,-0.34375 0.03125,0 0.296875,0 0.484375,0.1875 -0.4375,0.03125 -0.546875,0.390625 -0.546875,0.53125 0,0.234375 0.1875,0.359375 0.375,0.359375 C 5.21875,-5.734375 5.5,-5.96875 5.5,-6.34375 c 0,-0.453125 -0.453125,-0.6875 -0.859375,-0.6875 -0.34375,0 -0.96875,0.1875 -1.265625,1.171875 -0.0625,0.203125 -0.09375,0.3125 -0.328125,1.5625 h -0.6875 c -0.203125,0 -0.3125,0 -0.3125,0.1875 0,0.125 0.09375,0.125 0.28125,0.125 h 0.65625 L 2.25,-0.046875 c -0.1875,0.96875 -0.359375,1.875 -0.875,1.875 -0.046875,0 -0.28125,0 -0.484375,-0.1875 C 1.359375,1.609375 1.453125,1.25 1.453125,1.109375 1.453125,0.875 1.265625,0.75 1.078125,0.75 0.8125,0.75 0.53125,0.984375 0.53125,1.359375 c 0,0.4375 0.4375,0.6875 0.84375,0.6875 0.546875,0 0.953125,-0.59375 1.125,-0.96875 0.328125,-0.625 0.546875,-1.828125 0.5625,-1.90625 z m 0,0"
   id="path23" />

      </symbol>

      <symbol
   overflow="visible"
   id="symbol24"
   style="fill:#029e73;fill-opacity:1;stroke-width:0;stroke-opacity:1">
        <path
   style="fill:#029e73;fill-opacity:1;stroke:#029e73;stroke-width:0;stroke-opacity:1"
   d=""
   id="path24" />

      </symbol>

      <symbol
   overflow="visible"
   id="symbol25"
   style="fill:#029e73;fill-opacity:1;stroke-width:0;stroke-opacity:1">
        <path
   style="fill:#029e73;fill-opacity:1;stroke:#029e73;stroke-width:0;stroke-opacity:1"
   d="m 1.4375,-0.84375 c -0.25,0.390625 -0.46875,0.5625 -0.875,0.59375 -0.078125,0 -0.171875,0 -0.171875,0.140625 C 0.390625,-0.03125 0.453125,0 0.5,0 0.671875,0 0.90625,-0.03125 1.09375,-0.03125 1.3125,-0.03125 1.609375,0 1.8125,0 1.84375,0 1.953125,0 1.953125,-0.15625 1.953125,-0.25 1.859375,-0.25 1.828125,-0.25 1.78125,-0.265625 1.53125,-0.265625 1.53125,-0.453125 c 0,-0.09375 0.0625,-0.203125 0.09375,-0.265625 l 0.5625,-0.875 h 2 L 4.34375,-0.4375 C 4.328125,-0.359375 4.28125,-0.25 3.875,-0.25 c -0.09375,0 -0.1875,0 -0.1875,0.15625 C 3.6875,-0.0625 3.703125,0 3.796875,0 4,0 4.5,-0.03125 4.703125,-0.03125 c 0.125,0 0.28125,0.015625 0.40625,0.015625 C 5.234375,-0.015625 5.375,0 5.5,0 5.59375,0 5.640625,-0.0625 5.640625,-0.140625 5.640625,-0.25 5.5625,-0.25 5.453125,-0.25 c -0.40625,0 -0.421875,-0.0625 -0.4375,-0.21875 l -0.625,-4.3125 C 4.375,-4.921875 4.359375,-4.96875 4.234375,-4.96875 4.09375,-4.96875 4.0625,-4.90625 4,-4.8125 Z m 0.921875,-1 L 3.8125,-4.125 4.140625,-1.84375 Z m 0,0"
   id="path25" />

      </symbol>

    </g>
    <g
       id="g29"
       style="fill:#7e57c2;fill-opacity:1;stroke-width:0">
      <symbol
   overflow="visible"
   id="symbol26"
   style="fill:#7e57c2;fill-opacity:1;stroke-width:0">
        <path
   style="fill:#7e57c2;fill-opacity:1;stroke:#7e57c2;stroke-width:0"
   d=""
   id="path26" />

      </symbol>

      <symbol
   overflow="visible"
   id="symbol27"
   style="fill:#7e57c2;fill-opacity:1;stroke-width:0">
        <path
   style="fill:#7e57c2;fill-opacity:1;stroke:#7e57c2;stroke-width:0"
   d="m 2.984375,-5.546875 h 0.03125 l 1.96875,5.203125 H 0.96875 Z M 3.515625,-6.5625 h -0.625 L 0.34375,-0.203125 C 0.3125,-0.09375 0.296875,-0.09375 0.296875,-0.0625 0.296875,-0.015625 0.375,0 0.515625,0 h 5.25 c 0.171875,0 0.21875,-0.015625 0.21875,-0.0625 0,-0.015625 -0.015625,-0.046875 -0.046875,-0.140625 z m 0,0"
   id="path27" />

      </symbol>

      <symbol
   overflow="visible"
   id="symbol28"
   style="fill:#7e57c2;fill-opacity:1;stroke-width:0">
        <path
   style="fill:#7e57c2;fill-opacity:1;stroke:#7e57c2;stroke-width:0"
   d="M 0.359375,-4.375 1.59375,-2.53125 0.359375,-0.6875 Z m 0.21875,4.015625 1.234375,-1.84375 1.234375,1.84375 z M 2.03125,-2.53125 3.265625,-4.375 v 3.6875 z M 1.8125,-2.859375 0.578125,-4.703125 h 2.46875 z M 0,0 H 3.625 V -5.078125 H 0 Z m 0,0"
   id="path28" />

      </symbol>

      <symbol
   overflow="visible"
   id="symbol29"
   style="fill:#7e57c2;fill-opacity:1;stroke-width:0">
        <path
   style="fill:#7e57c2;fill-opacity:1;stroke:#7e57c2;stroke-width:0"
   d="M 2.09375,-0.890625 V -3.40625 c 0,-0.4375 0,-0.875 0.015625,-0.96875 0,-0.046875 -0.015625,-0.046875 -0.03125,-0.046875 -0.40625,0.25 -0.796875,0.4375 -1.4375,0.734375 C 0.65625,-3.609375 0.6875,-3.53125 0.75,-3.5 c 0.34375,-0.125 0.5,-0.171875 0.640625,-0.171875 0.125,0 0.140625,0.171875 0.140625,0.421875 v 2.359375 c 0,0.609375 -0.1875,0.640625 -0.703125,0.671875 -0.046875,0.03125 -0.046875,0.1875 0,0.234375 C 1.1875,0 1.453125,0 1.84375,0 c 0.34375,0 0.515625,0 0.875,0.015625 0.046875,-0.046875 0.046875,-0.203125 0,-0.234375 -0.5,-0.03125 -0.625,-0.0625 -0.625,-0.671875 z m 0,0"
   id="path29" />

      </symbol>

    </g>
    <g
       id="g47"
       style="fill:#7e57c2;fill-opacity:1;stroke-width:0">
      <symbol
   overflow="visible"
   id="symbol30"
   style="fill:#7e57c2;fill-opacity:1;stroke-width:0">
        <path
   style="fill:#7e57c2;fill-opacity:1;stroke:#7e57c2;stroke-width:0"
   d=""
   id="path30" />

      </symbol>

      <symbol
   overflow="visible"
   id="symbol31"
   style="fill:#7e57c2;fill-opacity:1;stroke-width:0">
        <path
   style="fill:#7e57c2;fill-opacity:1;stroke:#7e57c2;stroke-width:0"
   d="m 2.984375,-5.546875 h 0.03125 l 1.96875,5.203125 H 0.96875 Z M 3.515625,-6.5625 h -0.625 L 0.34375,-0.203125 C 0.3125,-0.09375 0.296875,-0.09375 0.296875,-0.0625 0.296875,-0.015625 0.375,0 0.515625,0 h 5.25 c 0.171875,0 0.21875,-0.015625 0.21875,-0.0625 0,-0.015625 -0.015625,-0.046875 -0.046875,-0.140625 z m 0,0"
   id="path31" />

      </symbol>

      <symbol
   overflow="visible"
   id="symbol46"
   style="fill:#7e57c2;fill-opacity:1;stroke-width:0">
        <path
   style="fill:#7e57c2;fill-opacity:1;stroke:#7e57c2;stroke-width:0"
   d="M 0.359375,-4.375 1.59375,-2.53125 0.359375,-0.6875 Z m 0.21875,4.015625 1.234375,-1.84375 1.234375,1.84375 z M 2.03125,-2.53125 3.265625,-4.375 v 3.6875 z M 1.8125,-2.859375 0.578125,-4.703125 h 2.46875 z M 0,0 H 3.625 V -5.078125 H 0 Z m 0,0"
   id="path46" />

      </symbol>

      <symbol
   overflow="visible"
   id="symbol47"
   style="fill:#7e57c2;fill-opacity:1;stroke-width:0">
        <path
   style="fill:#7e57c2;fill-opacity:1;stroke:#7e57c2;stroke-width:0"
   d="m 0.4375,-3.40625 c 0,0.15625 0.140625,0.296875 0.296875,0.296875 0.125,0 0.34375,-0.140625 0.34375,-0.296875 0,-0.0625 -0.015625,-0.109375 -0.03125,-0.15625 -0.015625,-0.046875 -0.0625,-0.109375 -0.0625,-0.171875 0,-0.1875 0.1875,-0.4375 0.71875,-0.4375 0.265625,0 0.640625,0.171875 0.640625,0.875 0,0.46875 -0.171875,0.84375 -0.59375,1.28125 l -0.546875,0.53125 C 0.5,-0.765625 0.375,-0.421875 0.375,0.015625 0.375,0.015625 0.75,0 0.984375,0 H 2.25 C 2.484375,0 2.8125,0.015625 2.8125,0.015625 2.90625,-0.375 2.984375,-0.921875 3,-1.140625 2.953125,-1.171875 2.859375,-1.1875 2.78125,-1.171875 c -0.125,0.515625 -0.25,0.703125 -0.5,0.703125 H 0.984375 c 0,-0.359375 0.5,-0.84375 0.53125,-0.875 L 2.25,-2.0625 C 2.671875,-2.453125 2.984375,-2.78125 2.984375,-3.328125 2.984375,-4.109375 2.34375,-4.4375 1.75,-4.4375 c -0.8125,0 -1.3125,0.59375 -1.3125,1.03125 z m 0,0"
   id="path47" />

      </symbol>

    </g>
    <g
       id="g53"
       style="stroke-width:0">
      <symbol
   overflow="visible"
   id="symbol48"
   style="stroke-width:0">
        <path
   style="stroke:none;stroke-width:0"
   d=""
   id="path48" />

      </symbol>

      <symbol
   overflow="visible"
   id="symbol49"
   style="stroke-width:0">
        <path
   style="stroke:none;stroke-width:0"
   d="m 4.296875,-1.09375 c -0.0625,0.25 -0.171875,0.671875 -0.171875,0.734375 0,0.203125 0.15625,0.4375 0.46875,0.4375 0.171875,0 0.484375,-0.09375 0.625,-0.421875 C 5.296875,-0.5625 5.75,-2.4375 5.859375,-2.84375 5.875,-3 5.90625,-3.046875 6.109375,-3.328125 c 0.265625,-0.34375 0.734375,-0.8125 1.421875,-0.8125 0.265625,0 0.5,0.09375 0.5,0.578125 0,0.578125 -0.4375,1.734375 -0.625,2.234375 -0.109375,0.265625 -0.140625,0.34375 -0.140625,0.515625 0,0.578125 0.578125,0.890625 1.125,0.890625 1.0625,0 1.5625,-1.359375 1.5625,-1.546875 0,-0.140625 -0.15625,-0.140625 -0.25,-0.140625 -0.109375,0 -0.1875,0 -0.21875,0.125 -0.328125,1.109375 -0.875,1.203125 -1.03125,1.203125 -0.0625,0 -0.171875,0 -0.171875,-0.203125 0,-0.234375 0.109375,-0.484375 0.203125,-0.734375 C 8.640625,-1.625 9.09375,-2.796875 9.09375,-3.34375 9.09375,-4.265625 8.328125,-4.5 7.609375,-4.5 7.390625,-4.5 6.625,-4.5 5.875,-3.65625 5.859375,-3.78125 5.78125,-4.09375 5.40625,-4.296875 5.046875,-4.5 4.546875,-4.5 4.4375,-4.5 4.234375,-4.5 3.5,-4.5 2.796875,-3.75 2.65625,-4.25 2.109375,-4.5 1.5625,-4.5 1.203125,-4.5 0.921875,-4.296875 0.703125,-3.9375 0.453125,-3.53125 0.3125,-3 0.3125,-2.953125 c 0,0.140625 0.15625,0.140625 0.25,0.140625 0.109375,0 0.140625,0 0.1875,-0.046875 C 0.78125,-2.875 0.78125,-2.90625 0.84375,-3.15625 1.03125,-3.921875 1.25,-4.140625 1.515625,-4.140625 c 0.15625,0 0.234375,0.09375 0.234375,0.359375 0,0.171875 -0.046875,0.328125 -0.140625,0.734375 C 1.53125,-2.765625 1.4375,-2.375 1.390625,-2.15625 L 1.03125,-0.75 C 1,-0.625 0.953125,-0.421875 0.953125,-0.359375 c 0,0.203125 0.15625,0.4375 0.46875,0.4375 0.515625,0 0.625,-0.453125 0.703125,-0.75 0.09375,-0.375 0.171875,-0.6875 0.28125,-1.125 0.03125,-0.125 0.28125,-1.15625 0.3125,-1.1875 0,-0.0625 0.28125,-0.5 0.609375,-0.78125 0.28125,-0.21875 0.609375,-0.375 1.03125,-0.375 0.25,0 0.5,0.09375 0.5,0.578125 0,0.234375 -0.078125,0.515625 -0.109375,0.671875 z m 0,0"
   id="path49" />

      </symbol>

      <symbol
   overflow="visible"
   id="symbol50"
   style="stroke-width:0">
        <path
   style="stroke:none;stroke-width:0"
   d="M 5.453125,-4.890625 C 5.453125,-6.640625 4.421875,-7 3.8125,-7 c -0.796875,0 -1.78125,0.515625 -2.53125,1.875 -0.515625,0.9375 -0.828125,2.296875 -0.828125,3.09375 0,1.453125 0.765625,2.109375 1.65625,2.109375 0.671875,0 1.546875,-0.390625 2.234375,-1.40625 0.84375,-1.21875 1.109375,-2.8125 1.109375,-3.5625 z m -3.484375,1.1875 c 0.140625,-0.578125 0.40625,-1.484375 0.703125,-2 0.234375,-0.40625 0.640625,-0.9375 1.109375,-0.9375 0.421875,0 0.609375,0.4375 0.609375,1.03125 0,0.625 -0.21875,1.5 -0.328125,1.90625 z M 3.9375,-3.21875 c -0.625,2.671875 -1.453125,2.9375 -1.796875,2.9375 C 2,-0.28125 1.78125,-0.3125 1.640625,-0.625 1.53125,-0.890625 1.53125,-1.28125 1.53125,-1.296875 c 0,-0.5625 0.21875,-1.5 0.328125,-1.921875 z m 0,0"
   id="path50" />

      </symbol>

      <symbol
   overflow="visible"
   id="symbol51"
   style="stroke-width:0">
        <path
   style="stroke:none;stroke-width:0"
   d=""
   id="path51" />

      </symbol>

      <symbol
   overflow="visible"
   id="symbol52"
   style="stroke-width:0">
        <path
   style="stroke:none;stroke-width:0"
   d="m 3.296875,2.390625 c 0,-0.03125 0,-0.046875 -0.171875,-0.21875 C 1.890625,0.921875 1.5625,-0.96875 1.5625,-2.5 c 0,-1.734375 0.375,-3.46875 1.609375,-4.703125 0.125,-0.125 0.125,-0.140625 0.125,-0.171875 0,-0.078125 -0.03125,-0.109375 -0.09375,-0.109375 -0.109375,0 -1,0.6875 -1.59375,1.953125 -0.5,1.09375 -0.625,2.203125 -0.625,3.03125 0,0.78125 0.109375,1.984375 0.65625,3.125 C 2.25,1.84375 3.09375,2.5 3.203125,2.5 c 0.0625,0 0.09375,-0.03125 0.09375,-0.109375 z m 0,0"
   id="path52" />

      </symbol>

      <symbol
   overflow="visible"
   id="symbol53"
   style="stroke-width:0">
        <path
   style="stroke:none;stroke-width:0"
   d="m 2.875,-2.5 c 0,-0.765625 -0.109375,-1.96875 -0.65625,-3.109375 -0.59375,-1.21875 -1.453125,-1.875 -1.546875,-1.875 -0.0625,0 -0.109375,0.046875 -0.109375,0.109375 0,0.03125 0,0.046875 0.1875,0.234375 0.984375,0.984375 1.546875,2.5625 1.546875,4.640625 0,1.71875 -0.359375,3.46875 -1.59375,4.71875 C 0.5625,2.34375 0.5625,2.359375 0.5625,2.390625 0.5625,2.453125 0.609375,2.5 0.671875,2.5 0.765625,2.5 1.671875,1.8125 2.25,0.546875 2.765625,-0.546875 2.875,-1.65625 2.875,-2.5 Z m 0,0"
   id="path53" />

      </symbol>

    </g>
    <g
       id="g56"
       style="fill:#0173b2;fill-opacity:1;stroke-width:0;stroke-opacity:1">
      <symbol
   overflow="visible"
   id="symbol55"
   style="fill:#0173b2;fill-opacity:1;stroke-width:0;stroke-opacity:1">
        <path
   style="fill:#0173b2;fill-opacity:1;stroke:#0173b2;stroke-width:0;stroke-opacity:1"
   d=""
   id="path55" />

      </symbol>

      <symbol
   overflow="visible"
   id="symbol56"
   style="fill:#0173b2;fill-opacity:1;stroke-width:0;stroke-opacity:1">
        <path
   style="fill:#0173b2;fill-opacity:1;stroke:#0173b2;stroke-width:0;stroke-opacity:1"
   d="m 3.65625,-3.984375 h 0.859375 c 0.203125,0 0.296875,0 0.296875,-0.203125 0,-0.109375 -0.09375,-0.109375 -0.265625,-0.109375 H 3.71875 L 3.921875,-5.4375 c 0.046875,-0.203125 0.1875,-0.90625 0.25,-1.03125 0.078125,-0.1875 0.25,-0.34375 0.46875,-0.34375 0.03125,0 0.296875,0 0.484375,0.1875 -0.4375,0.03125 -0.546875,0.390625 -0.546875,0.53125 0,0.234375 0.1875,0.359375 0.375,0.359375 C 5.21875,-5.734375 5.5,-5.96875 5.5,-6.34375 c 0,-0.453125 -0.453125,-0.6875 -0.859375,-0.6875 -0.34375,0 -0.96875,0.1875 -1.265625,1.171875 -0.0625,0.203125 -0.09375,0.3125 -0.328125,1.5625 h -0.6875 c -0.203125,0 -0.3125,0 -0.3125,0.1875 0,0.125 0.09375,0.125 0.28125,0.125 h 0.65625 L 2.25,-0.046875 c -0.1875,0.96875 -0.359375,1.875 -0.875,1.875 -0.046875,0 -0.28125,0 -0.484375,-0.1875 C 1.359375,1.609375 1.453125,1.25 1.453125,1.109375 1.453125,0.875 1.265625,0.75 1.078125,0.75 0.8125,0.75 0.53125,0.984375 0.53125,1.359375 c 0,0.4375 0.4375,0.6875 0.84375,0.6875 0.546875,0 0.953125,-0.59375 1.125,-0.96875 0.328125,-0.625 0.546875,-1.828125 0.5625,-1.90625 z m 0,0"
   id="path56" />

      </symbol>

    </g>
    <g
       id="g60"
       style="stroke-width:0">
      <symbol
   overflow="visible"
   id="symbol57"
   style="stroke-width:0">
        <path
   style="stroke:none;stroke-width:0"
   d=""
   id="path57" />

      </symbol>

      <symbol
   overflow="visible"
   id="symbol58"
   style="stroke-width:0">
        <path
   style="stroke:none;stroke-width:0"
   d="M 5.453125,-4.890625 C 5.453125,-6.640625 4.421875,-7 3.8125,-7 c -0.796875,0 -1.78125,0.515625 -2.53125,1.875 -0.515625,0.9375 -0.828125,2.296875 -0.828125,3.09375 0,1.453125 0.765625,2.109375 1.65625,2.109375 0.671875,0 1.546875,-0.390625 2.234375,-1.40625 0.84375,-1.21875 1.109375,-2.8125 1.109375,-3.5625 z m -3.484375,1.1875 c 0.140625,-0.578125 0.40625,-1.484375 0.703125,-2 0.234375,-0.40625 0.640625,-0.9375 1.109375,-0.9375 0.421875,0 0.609375,0.4375 0.609375,1.03125 0,0.625 -0.21875,1.5 -0.328125,1.90625 z M 3.9375,-3.21875 c -0.625,2.671875 -1.453125,2.9375 -1.796875,2.9375 C 2,-0.28125 1.78125,-0.3125 1.640625,-0.625 1.53125,-0.890625 1.53125,-1.28125 1.53125,-1.296875 c 0,-0.5625 0.21875,-1.5 0.328125,-1.921875 z m 0,0"
   id="path58" />

      </symbol>

      <symbol
   overflow="visible"
   id="symbol59"
   style="stroke-width:0">
        <path
   style="stroke:none;stroke-width:0"
   d=""
   id="path59" />

      </symbol>

      <symbol
   overflow="visible"
   id="symbol60"
   style="stroke-width:0">
        <path
   style="stroke:none;stroke-width:0"
   d="m 2.328125,-4.4375 c 0,-0.1875 0,-0.1875 -0.203125,-0.1875 -0.453125,0.4375 -1.078125,0.4375 -1.359375,0.4375 v 0.25 c 0.15625,0 0.625,0 1,-0.1875 v 3.546875 c 0,0.234375 0,0.328125 -0.6875,0.328125 H 0.8125 V 0 c 0.125,0 0.984375,-0.03125 1.234375,-0.03125 0.21875,0 1.09375,0.03125 1.25,0.03125 V -0.25 H 3.03125 c -0.703125,0 -0.703125,-0.09375 -0.703125,-0.328125 z m 0,0"
   id="path60" />

      </symbol>

    </g>
    <g
       id="g64"
       style="stroke-width:0">
      <symbol
   overflow="visible"
   id="symbol61"
   style="stroke-width:0">
        <path
   style="stroke:none;stroke-width:0"
   d=""
   id="path61" />

      </symbol>

      <symbol
   overflow="visible"
   id="symbol62"
   style="stroke-width:0">
        <path
   style="stroke:none;stroke-width:0"
   d="M 5.453125,-4.890625 C 5.453125,-6.640625 4.421875,-7 3.8125,-7 c -0.796875,0 -1.78125,0.515625 -2.53125,1.875 -0.515625,0.9375 -0.828125,2.296875 -0.828125,3.09375 0,1.453125 0.765625,2.109375 1.65625,2.109375 0.671875,0 1.546875,-0.390625 2.234375,-1.40625 0.84375,-1.21875 1.109375,-2.8125 1.109375,-3.5625 z m -3.484375,1.1875 c 0.140625,-0.578125 0.40625,-1.484375 0.703125,-2 0.234375,-0.40625 0.640625,-0.9375 1.109375,-0.9375 0.421875,0 0.609375,0.4375 0.609375,1.03125 0,0.625 -0.21875,1.5 -0.328125,1.90625 z M 3.9375,-3.21875 c -0.625,2.671875 -1.453125,2.9375 -1.796875,2.9375 C 2,-0.28125 1.78125,-0.3125 1.640625,-0.625 1.53125,-0.890625 1.53125,-1.28125 1.53125,-1.296875 c 0,-0.5625 0.21875,-1.5 0.328125,-1.921875 z m 0,0"
   id="path62" />

      </symbol>

      <symbol
   overflow="visible"
   id="symbol63"
   style="stroke-width:0">
        <path
   style="stroke:none;stroke-width:0"
   d=""
   id="path63" />

      </symbol>

      <symbol
   overflow="visible"
   id="symbol64"
   style="stroke-width:0">
        <path
   style="stroke:none;stroke-width:0"
   d="M 3.515625,-1.265625 H 3.28125 c -0.015625,0.15625 -0.09375,0.5625 -0.1875,0.625 C 3.046875,-0.59375 2.515625,-0.59375 2.40625,-0.59375 H 1.125 c 0.734375,-0.640625 0.984375,-0.84375 1.390625,-1.171875 0.515625,-0.40625 1,-0.84375 1,-1.5 0,-0.84375 -0.734375,-1.359375 -1.625,-1.359375 -0.859375,0 -1.453125,0.609375 -1.453125,1.25 0,0.34375 0.296875,0.390625 0.375,0.390625 0.15625,0 0.359375,-0.125 0.359375,-0.375 0,-0.125 -0.046875,-0.375 -0.40625,-0.375 C 0.984375,-4.21875 1.453125,-4.375 1.78125,-4.375 c 0.703125,0 1.0625,0.546875 1.0625,1.109375 0,0.609375 -0.4375,1.078125 -0.65625,1.328125 L 0.515625,-0.265625 C 0.4375,-0.203125 0.4375,-0.1875 0.4375,0 h 2.875 z m 0,0"
   id="path64" />

      </symbol>

    </g>
  </defs>
  <metadata
     id="metadata2">
    <rdf:RDF>
      <cc:Work
         rdf:about="">
        <dc:format>image/svg+xml</dc:format>
        <dc:type
           rdf:resource="http://purl.org/dc/dcmitype/StillImage" />
      </cc:Work>
    </rdf:RDF>
  </metadata>
  <rect
     width="16.933001"
     height="16.933001"
     ry="2.3211"
     fill="#ffffff"
     stroke-linecap="round"
     stroke-linejoin="round"
     stroke-width="6"
     id="rect186"
     x="-2.3841858e-07"
     y="-1.7881393e-07" />
  <g
     id="g39"
     transform="translate(0,0.12420751)">
    <path
       style="fill:none;fill-opacity:0.5;stroke:#b3b3b3;stroke-width:2.01026451;stroke-linejoin:miter;stroke-dasharray:none;stroke-dashoffset:0;stroke-opacity:1"
       d="M 2.3623567,2.7065888 V 14.87393"
       id="path4-6"
       sodipodi:nodetypes="cc" />
    <path
       style="fill:none;fill-opacity:0.5;stroke:#b3b3b3;stroke-width:2.01026451;stroke-linejoin:miter;stroke-dasharray:none;stroke-dashoffset:0;stroke-opacity:1"
       d="m 8.4993875,4.4616891 0,10.4122409"
       id="path5-2"
       sodipodi:nodetypes="cc" />
    <path
       style="fill:none;fill-opacity:0.5;stroke:#b3b3b3;stroke-width:2.01026451;stroke-linejoin:miter;stroke-dasharray:none;stroke-dashoffset:0;stroke-opacity:1"
       d="M 14.636423,9.351714 V 14.87393"
       id="path6"
       sodipodi:nodetypes="cc" />
    <path
       style="fill:none;stroke:#0173b2;stroke-width:2.48650521;stroke-linecap:round;stroke-dasharray:none;stroke-opacity:1"
       d="m 1.8681323,2.4393628 c 0,0 7.5134934,0.3700525 13.0424707,7.4402081"
       id="path54"
       sodipodi:nodetypes="cc" />
    <path
       style="fill:none;stroke:#000000;stroke-width:1.0583125;stroke-linejoin:round;stroke-dasharray:none"
       d="M 0.76919108,14.870876 H 16.163809"
       id="path64-5-2"
       sodipodi:nodetypes="cc" />
  </g>
  <g
     id="figure_1"
     style="stroke-linecap:butt;stroke-linejoin:round"
     transform="matrix(0.03927509,0,0,0.03927509,4.3414791,-6.1311605)" />
</svg>
