<?xml version="1.0" encoding="UTF-8"?>
<svg width="1.7486in" height="1.302in" version="1.1" viewBox="0 0 44.415 33.072" xml:space="preserve" xmlns="http://www.w3.org/2000/svg" xmlns:cc="http://creativecommons.org/ns#" xmlns:dc="http://purl.org/dc/elements/1.1/" xmlns:ns5="http://www.iki.fi/pav/software/textext/" xmlns:rdf="http://www.w3.org/1999/02/22-rdf-syntax-ns#"><defs><marker id="a" overflow="visible" markerHeight="5.1999998" markerWidth="6.935493" orient="auto" preserveAspectRatio="xMidYMid" viewBox="0 0 6.9304588 5.1962256"><path transform="scale(.6)" d="m8.7186 4.0337-10.926-4.0177 10.926-4.0177c-1.7455 2.3721-1.7354 5.6175-6e-7 8.0354z" fill="context-stroke" fill-rule="evenodd" stroke="context-stroke" stroke-linejoin="round" stroke-width=".625"/></marker><marker id="b" overflow="visible" markerHeight="5.1999998" markerWidth="6.9354925" orient="auto" preserveAspectRatio="xMidYMid" viewBox="0 0 6.9304588 5.1962256"><path transform="scale(-.6)" d="m8.7186 4.0337-10.926-4.0177 10.926-4.0177c-1.7455 2.3721-1.7354 5.6175-6e-7 8.0354z" fill="context-stroke" fill-rule="evenodd" stroke="context-stroke" stroke-linejoin="round" stroke-width=".625"/></marker></defs><metadata><rdf:RDF><cc:Work rdf:about=""><dc:format>image/svg+xml</dc:format><dc:type rdf:resource="http://purl.org/dc/dcmitype/StillImage"/></cc:Work></rdf:RDF></metadata><path d="m11.082 4.5688v18.82" fill="none" stroke="#000" stroke-width=".4572"/><path d="m14.814 4.5688v18.82" fill="none" stroke="#000" stroke-width=".4572"/><path d="m22.278 4.5688v18.82" fill="none" stroke="#000" stroke-width=".4572"/><path d="m18.546 4.5688v18.82" fill="none" stroke="#000" stroke-width=".4572"/><path d="m4.91 21.963v6.6946" fill="none" stroke="#808080" stroke-dasharray="1.016, 1.016" stroke-width=".508"/><path d="m28.199 21.963v6.6946" fill="none" stroke="#808080" stroke-dasharray="1.016, 1.016" stroke-width=".508"/><path d="m16.554 21.963v6.6946" fill="none" stroke="#808080" stroke-dasharray="1.016, 1.016" stroke-width=".508"/><path d="m39.843 21.963v6.6946" fill="none" stroke="#808080" stroke-dasharray="1.016, 1.016" stroke-width=".508"/><g transform="matrix(.35278 0 0 .35278 18.384 29.549)" stroke-width="0"          >
  <g transform="translate(-149.02 -127.28)">
    <g stroke-width="0">
      <g transform="translate(148.71 134.76)"><path d="m4.2969-1.0938c-0.0625 0.25-0.17188 0.67188-0.17188 0.73438 0 0.20312 0.15625 0.4375 0.46875 0.4375 0.17188 0 0.48438-0.09375 0.625-0.42188 0.078125-0.21875 0.53125-2.0938 0.64062-2.5 0.015625-0.15625 0.046875-0.20312 0.25-0.48438 0.26562-0.34375 0.73438-0.8125 1.4219-0.8125 0.26562 0 0.5 0.09375 0.5 0.57812 0 0.57812-0.4375 1.7344-0.625 2.2344-0.10938 0.26562-0.14062 0.34375-0.14062 0.51562 0 0.57812 0.57812 0.89062 1.125 0.89062 1.0625 0 1.5625-1.3594 1.5625-1.5469 0-0.14062-0.15625-0.14062-0.25-0.14062-0.10938 0-0.1875 0-0.21875 0.125-0.32812 1.1094-0.875 1.2031-1.0312 1.2031-0.0625 0-0.17188 0-0.17188-0.20312 0-0.23438 0.10938-0.48438 0.20312-0.73438 0.15625-0.40625 0.60938-1.5781 0.60938-2.125 0-0.92188-0.76562-1.1562-1.4844-1.1562-0.21875 0-0.98438 0-1.7344 0.84375-0.015625-0.125-0.09375-0.4375-0.46875-0.64062-0.35938-0.20312-0.85938-0.20312-0.96875-0.20312-0.20312 0-0.9375 0-1.6406 0.75-0.14062-0.5-0.6875-0.75-1.2344-0.75-0.35938 0-0.64062 0.20312-0.85938 0.5625-0.25 0.40625-0.39062 0.9375-0.39062 0.98438 0 0.14062 0.15625 0.14062 0.25 0.14062 0.10938 0 0.14062 0 0.1875-0.046875 0.03125-0.015625 0.03125-0.046875 0.09375-0.29688 0.1875-0.76562 0.40625-0.98438 0.67188-0.98438 0.15625 0 0.23438 0.09375 0.23438 0.35938 0 0.17188-0.046875 0.32812-0.14062 0.73438-0.078125 0.28125-0.17188 0.67188-0.21875 0.89062l-0.35938 1.4062c-0.03125 0.125-0.078125 0.32812-0.078125 0.39062 0 0.20312 0.15625 0.4375 0.46875 0.4375 0.51562 0 0.625-0.45312 0.70312-0.75l0.28125-1.125c0.03125-0.125 0.28125-1.1562 0.3125-1.1875 0-0.0625 0.28125-0.5 0.60938-0.78125 0.28125-0.21875 0.60938-0.375 1.0312-0.375 0.25 0 0.5 0.09375 0.5 0.57812 0 0.23438-0.078125 0.51562-0.10938 0.67188z"/>
      </g>
    
      <g transform="translate(159 134.76)"><path d="m3.2969 2.3906c0-0.03125 0-0.046875-0.17188-0.21875-1.2344-1.25-1.5625-3.1406-1.5625-4.6719 0-1.7344 0.375-3.4688 1.6094-4.7031 0.125-0.125 0.125-0.14062 0.125-0.17188 0-0.078125-0.03125-0.10938-0.09375-0.10938-0.10938 0-1 0.6875-1.5938 1.9531-0.5 1.0938-0.625 2.2031-0.625 3.0312 0 0.78125 0.10938 1.9844 0.65625 3.125 0.60938 1.2188 1.4531 1.875 1.5625 1.875 0.0625 0 0.09375-0.03125 0.09375-0.10938z"/>
      </g>
    
      <g transform="translate(162.87 134.76)"><path d="m5.4531-4.8906c0-1.75-1.0312-2.1094-1.6406-2.1094-0.79688 0-1.7812 0.51562-2.5312 1.875-0.51562 0.9375-0.82812 2.2969-0.82812 3.0938 0 1.4531 0.76562 2.1094 1.6562 2.1094 0.67188 0 1.5469-0.39062 2.2344-1.4062 0.84375-1.2188 1.1094-2.8125 1.1094-3.5625zm-3.4844 1.1875c0.14062-0.57812 0.40625-1.4844 0.70312-2 0.23438-0.40625 0.64062-0.9375 1.1094-0.9375 0.42188 0 0.60938 0.4375 0.60938 1.0312 0 0.625-0.21875 1.5-0.32812 1.9062zm1.9688 0.48438c-0.625 2.6719-1.4531 2.9375-1.7969 2.9375-0.14062 0-0.35938-0.03125-0.5-0.34375-0.10938-0.26562-0.10938-0.65625-0.10938-0.67188 0-0.5625 0.21875-1.5 0.32812-1.9219z"/>
      </g>
    
      <g transform="translate(168.79 134.76)"><path d="m2.875-2.5c0-0.76562-0.10938-1.9688-0.65625-3.1094-0.59375-1.2188-1.4531-1.875-1.5469-1.875-0.0625 0-0.10938 0.046875-0.10938 0.10938 0 0.03125 0 0.046875 0.1875 0.23438 0.98438 0.98438 1.5469 2.5625 1.5469 4.6406 0 1.7188-0.35938 3.4688-1.5938 4.7188-0.14062 0.125-0.14062 0.14062-0.14062 0.17188 0 0.0625 0.046875 0.10938 0.10938 0.10938 0.09375 0 1-0.6875 1.5781-1.9531 0.51562-1.0938 0.625-2.2031 0.625-3.0469z"/>
      </g></g>
  </g>
</g><text x="10.891196" y="27.466568" fill="#808080" font-family="'Times New Roman'" font-size="3.175px" stroke="#0173b2" stroke-linecap="round" stroke-width=".508" text-align="center" text-anchor="middle" style="font-variant-caps:normal;font-variant-east-asian:normal;font-variant-ligatures:normal;font-variant-numeric:normal" xml:space="preserve"><tspan x="10.891196" y="27.466568" fill="#808080" font-family="'Times New Roman'" font-size="3.175px" stroke="none" stroke-width=".508" style="font-variant-caps:normal;font-variant-east-asian:normal;font-variant-ligatures:normal;font-variant-numeric:normal">Cell 1</tspan></text><text x="22.428057" y="27.466568" fill="#808080" font-family="'Times New Roman'" font-size="3.175px" stroke="#0173b2" stroke-linecap="round" stroke-width=".508" text-align="center" text-anchor="middle" style="font-variant-caps:normal;font-variant-east-asian:normal;font-variant-ligatures:normal;font-variant-numeric:normal" xml:space="preserve"><tspan x="22.428057" y="27.466568" fill="#808080" font-family="'Times New Roman'" font-size="3.175px" stroke="none" stroke-width=".508" style="font-variant-caps:normal;font-variant-east-asian:normal;font-variant-ligatures:normal;font-variant-numeric:normal">Cell 2</tspan></text><text x="33.994072" y="27.466568" fill="#808080" font-family="'Times New Roman'" font-size="3.175px" stroke="#0173b2" stroke-linecap="round" stroke-width=".508" text-align="center" text-anchor="middle" style="font-variant-caps:normal;font-variant-east-asian:normal;font-variant-ligatures:normal;font-variant-numeric:normal" xml:space="preserve"><tspan x="33.994072" y="27.466568" fill="#808080" font-family="'Times New Roman'" font-size="3.175px" stroke="none" stroke-width=".508" style="font-variant-caps:normal;font-variant-east-asian:normal;font-variant-ligatures:normal;font-variant-numeric:normal">Cell 3</tspan></text><ellipse cx="11.082" cy="4.5688" rx=".96097" ry=".96619" fill="#0173b2"/><ellipse cx="14.814" cy="4.5688" rx=".96097" ry=".96619" fill="#0173b2"/><ellipse cx="18.546" cy="4.5688" rx=".96097" ry=".96619" fill="#0173b2"/><ellipse cx="22.278" cy="4.5688" rx=".96097" ry=".96619" fill="#0173b2"/><g transform="matrix(.35278 0 0 .35278 7.103 .6061)" stroke-width="0"          >
  <g transform="translate(-142.27 -127.76)">
    <g stroke-width="0">
      <g transform="translate(148.71 134.76)"><path d="m5.4531-4.8906c0-1.75-1.0312-2.1094-1.6406-2.1094-0.79688 0-1.7812 0.51562-2.5312 1.875-0.51562 0.9375-0.82812 2.2969-0.82812 3.0938 0 1.4531 0.76562 2.1094 1.6562 2.1094 0.67188 0 1.5469-0.39062 2.2344-1.4062 0.84375-1.2188 1.1094-2.8125 1.1094-3.5625zm-3.4844 1.1875c0.14062-0.57812 0.40625-1.4844 0.70312-2 0.23438-0.40625 0.64062-0.9375 1.1094-0.9375 0.42188 0 0.60938 0.4375 0.60938 1.0312 0 0.625-0.21875 1.5-0.32812 1.9062zm1.9688 0.48438c-0.625 2.6719-1.4531 2.9375-1.7969 2.9375-0.14062 0-0.35938-0.03125-0.5-0.34375-0.10938-0.26562-0.10938-0.65625-0.10938-0.67188 0-0.5625 0.21875-1.5 0.32812-1.9219z" stroke-width="0"/>
      </g>
    
      <g transform="translate(154.63 136.26)"><path d="m2.3281-4.4375c0-0.1875 0-0.1875-0.20312-0.1875-0.45312 0.4375-1.0781 0.4375-1.3594 0.4375v0.25c0.15625 0 0.625 0 1-0.1875v3.5469c0 0.23438 0 0.32812-0.6875 0.32812h-0.26562v0.25c0.125 0 0.98438-0.03125 1.2344-0.03125 0.21875 0 1.0938 0.03125 1.25 0.03125v-0.25h-0.26562c-0.70312 0-0.70312-0.09375-0.70312-0.32812z" stroke-width="0"/>
      </g></g>
  </g>
</g><g transform="matrix(.35278 0 0 .35278 11.531 .6061)" stroke-width="0"          >
  <g transform="translate(-143.99 -127.76)">
    <g stroke-width="0">
      <g transform="translate(148.71 134.76)"><path d="m5.4531-4.8906c0-1.75-1.0312-2.1094-1.6406-2.1094-0.79688 0-1.7812 0.51562-2.5312 1.875-0.51562 0.9375-0.82812 2.2969-0.82812 3.0938 0 1.4531 0.76562 2.1094 1.6562 2.1094 0.67188 0 1.5469-0.39062 2.2344-1.4062 0.84375-1.2188 1.1094-2.8125 1.1094-3.5625zm-3.4844 1.1875c0.14062-0.57812 0.40625-1.4844 0.70312-2 0.23438-0.40625 0.64062-0.9375 1.1094-0.9375 0.42188 0 0.60938 0.4375 0.60938 1.0312 0 0.625-0.21875 1.5-0.32812 1.9062zm1.9688 0.48438c-0.625 2.6719-1.4531 2.9375-1.7969 2.9375-0.14062 0-0.35938-0.03125-0.5-0.34375-0.10938-0.26562-0.10938-0.65625-0.10938-0.67188 0-0.5625 0.21875-1.5 0.32812-1.9219z" stroke-width="0"/>
      </g>
    
      <g transform="translate(154.63 136.26)"><path d="m3.5156-1.2656h-0.23438c-0.015625 0.15625-0.09375 0.5625-0.1875 0.625-0.046875 0.046875-0.57812 0.046875-0.6875 0.046875h-1.2812c0.73438-0.64062 0.98438-0.84375 1.3906-1.1719 0.51562-0.40625 1-0.84375 1-1.5 0-0.84375-0.73438-1.3594-1.625-1.3594-0.85938 0-1.4531 0.60938-1.4531 1.25 0 0.34375 0.29688 0.39062 0.375 0.39062 0.15625 0 0.35938-0.125 0.35938-0.375 0-0.125-0.046875-0.375-0.40625-0.375 0.21875-0.48438 0.6875-0.64062 1.0156-0.64062 0.70312 0 1.0625 0.54688 1.0625 1.1094 0 0.60938-0.4375 1.0781-0.65625 1.3281l-1.6719 1.6719c-0.078125 0.0625-0.078125 0.078125-0.078125 0.26562h2.875z" stroke-width="0"/>
      </g></g>
  </g>
</g><g transform="matrix(.35278 0 0 .35278 17.172 .5813)" stroke-width="0"          >
  <g transform="translate(-149.16 -127.76)">
    <g stroke-width="0">
      <g transform="translate(148.71 134.76)"><path d="m5.4531-4.8906c0-1.75-1.0312-2.1094-1.6406-2.1094-0.79688 0-1.7812 0.51562-2.5312 1.875-0.51562 0.9375-0.82812 2.2969-0.82812 3.0938 0 1.4531 0.76562 2.1094 1.6562 2.1094 0.67188 0 1.5469-0.39062 2.2344-1.4062 0.84375-1.2188 1.1094-2.8125 1.1094-3.5625zm-3.4844 1.1875c0.14062-0.57812 0.40625-1.4844 0.70312-2 0.23438-0.40625 0.64062-0.9375 1.1094-0.9375 0.42188 0 0.60938 0.4375 0.60938 1.0312 0 0.625-0.21875 1.5-0.32812 1.9062zm1.9688 0.48438c-0.625 2.6719-1.4531 2.9375-1.7969 2.9375-0.14062 0-0.35938-0.03125-0.5-0.34375-0.10938-0.26562-0.10938-0.65625-0.10938-0.67188 0-0.5625 0.21875-1.5 0.32812-1.9219z" stroke-width="0"/>
      </g>
    
      <g transform="translate(154.63 136.26)"><path d="m1.9062-2.3281c0.54688 0 0.9375 0.375 0.9375 1.125 0 0.85938-0.51562 1.125-0.90625 1.125-0.28125 0-0.90625-0.078125-1.1875-0.5 0.32812 0 0.40625-0.23438 0.40625-0.39062 0-0.21875-0.17188-0.375-0.39062-0.375-0.1875 0-0.39062 0.125-0.39062 0.40625 0 0.65625 0.71875 1.0781 1.5625 1.0781 0.96875 0 1.6406-0.65625 1.6406-1.3438 0-0.54688-0.4375-1.0938-1.2031-1.25 0.71875-0.26562 0.98438-0.78125 0.98438-1.2188 0-0.54688-0.625-0.95312-1.4062-0.95312-0.76562 0-1.3594 0.375-1.3594 0.9375 0 0.23438 0.15625 0.35938 0.35938 0.35938 0.21875 0 0.35938-0.15625 0.35938-0.34375 0-0.20312-0.14062-0.35938-0.35938-0.375 0.25-0.29688 0.71875-0.375 0.98438-0.375 0.3125 0 0.75 0.15625 0.75 0.75 0 0.29688-0.09375 0.625-0.28125 0.82812-0.21875 0.26562-0.42188 0.28125-0.76562 0.3125-0.17188 0.015625-0.1875 0.015625-0.21875 0.015625-0.015625 0-0.078125 0.015625-0.078125 0.09375 0 0.09375 0.0625 0.09375 0.1875 0.09375z" stroke-width="0"/>
      </g></g>
  </g>
</g><g transform="matrix(.35278 0 0 .35278 21.193 .6061)" stroke-width="0"          >
  <g transform="translate(-149.16 -127.76)">
    <g stroke-width="0">
      <g transform="translate(148.71 134.76)"><path d="m5.4531-4.8906c0-1.75-1.0312-2.1094-1.6406-2.1094-0.79688 0-1.7812 0.51562-2.5312 1.875-0.51562 0.9375-0.82812 2.2969-0.82812 3.0938 0 1.4531 0.76562 2.1094 1.6562 2.1094 0.67188 0 1.5469-0.39062 2.2344-1.4062 0.84375-1.2188 1.1094-2.8125 1.1094-3.5625zm-3.4844 1.1875c0.14062-0.57812 0.40625-1.4844 0.70312-2 0.23438-0.40625 0.64062-0.9375 1.1094-0.9375 0.42188 0 0.60938 0.4375 0.60938 1.0312 0 0.625-0.21875 1.5-0.32812 1.9062zm1.9688 0.48438c-0.625 2.6719-1.4531 2.9375-1.7969 2.9375-0.14062 0-0.35938-0.03125-0.5-0.34375-0.10938-0.26562-0.10938-0.65625-0.10938-0.67188 0-0.5625 0.21875-1.5 0.32812-1.9219z" stroke-width="0"/>
      </g>
    
      <g transform="translate(154.63 136.26)"><path d="m3.6875-1.1406v-0.25h-0.78125v-3.1094c0-0.14062 0-0.20312-0.14062-0.20312-0.09375 0-0.125 0-0.1875 0.10938l-2.3125 3.2031v0.25h2.0625v0.5625c0 0.25 0 0.32812-0.57812 0.32812h-0.1875v0.25c0.35938-0.015625 0.79688-0.03125 1.0469-0.03125 0.26562 0 0.70312 0.015625 1.0625 0.03125v-0.25h-0.1875c-0.57812 0-0.57812-0.078125-0.57812-0.32812v-0.5625zm-1.3125-2.7969v2.5469h-1.8438z" stroke-width="0"/>
      </g></g>
  </g>
</g><path d="m0.74481 28.657h42.926" fill="none" marker-end="url(#b)" marker-start="url(#a)" stroke="#000" stroke-linejoin="round" stroke-width=".381"/></svg>
